#!OML:ASF H:\Punching\Project 1\Capture day 1\Session 1\female.ASF
:FULLY-SPECIFIED
:DEGREES
3171
root 2.35942 14.6346 -1.23377 18.2261 20.0961 5.74246
lowerback -1.74656 -1.32993 -1.75241
upperback -8.27949 -1.78111 0.0955951
thorax -7.60997 -0.740353 1.16243
lowerneck -17.2351 -2.87311 1.23748
upperneck 32.1384 -4.09165 -1.3543
head 13.7087 -1.7674 -1.4209
rclavicle 5.44794e-014 -1.19271e-014
rhumerus 9.59828 12.706 -67.624
rradius 133.794
rwrist -11.3131
rhand -30.6094 14.6164
rfingers 7.12502
rthumb -3.90592 -15.3276
lclavicle 5.44794e-014 -1.19271e-014
lhumerus 7.35838 -26.6162 71.9572
lradius 139.198
lwrist 1.43329
lhand -23.1231 2.2291
lfingers 7.12502
lthumb 3.32418 32.1829
rfemur -52.2053 -14.5579 6.99774
rtibia 51.5901
rfoot -8.00715 -17.1364
rtoes 0.231461
lfemur -6.50891 -15.2137 -18.333
ltibia 24.8349
lfoot -34.8654 29.0008
ltoes -4.28375
3172
root 2.36454 14.6384 -1.23385 18.095 20.1414 5.56604
lowerback -1.81472 -1.37817 -1.57218
upperback -8.27307 -1.84095 0.0772412
thorax -7.56694 -0.783716 1.04355
lowerneck -17.2462 -2.86842 1.2317
upperneck 32.2234 -4.11909 -1.257
head 13.751 -1.7651 -1.38812
rclavicle 1.01256e-014 1.11319e-014
rhumerus 9.52753 12.9883 -67.8166
rradius 133.632
rwrist -11.1019
rhand -30.6177 14.6543
rfingers 7.12502
rthumb -3.914 -15.2895
lclavicle 1.01256e-014 1.11319e-014
lhumerus 7.32557 -26.8484 72.0748
lradius 139.055
lwrist 1.50225
lhand -22.9897 2.1491
lfingers 7.12502
lthumb 3.45304 32.1009
rfemur -51.9664 -14.4108 7.09083
rtibia 51.3646
rfoot -7.86892 -17.2464
rtoes 0.0456524
lfemur -6.45478 -15.2669 -18.2118
ltibia 24.9151
lfoot -34.9522 29.1042
ltoes -4.22016
3173
root 2.36953 14.6427 -1.23247 17.9345 20.2088 5.36102
lowerback -1.86995 -1.43478 -1.37922
upperback -8.27014 -1.91078 0.0829538
thorax -7.53512 -0.831727 0.943573
lowerneck -17.2328 -2.8593 1.21752
upperneck 32.3296 -4.13476 -1.16647
head 13.7975 -1.7593 -1.35443
rclavicle -2.004e-014 2.38542e-015
rhumerus 9.46799 13.2603 -67.947
rradius 133.516
rwrist -10.9937
rhand -30.6473 14.654
rfingers 7.12502
rthumb -3.94255 -15.2892
lclavicle -2.004e-014 2.38542e-015
lhumerus 7.29742 -27.0599 72.1958
lradius 138.932
lwrist 1.55623
lhand -22.8584 2.10369
lfingers 7.12502
lthumb 3.57988 32.0534
rfemur -51.7011 -14.2902 7.23439
rtibia 51.1509
rfoot -7.76199 -17.3581
rtoes -0.0993928
lfemur -6.37244 -15.3614 -18.0627
ltibia 24.9913
lfoot -35.067 29.2205
ltoes -4.11498
3174
root 2.37403 14.6475 -1.2296 17.7531 20.2936 5.1402
lowerback -1.91463 -1.49897 -1.19232
upperback -8.26685 -1.9902 0.108558
thorax -7.50853 -0.883202 0.868432
lowerneck -17.2199 -2.84676 1.20399
upperneck 32.4572 -4.14163 -1.08886
head 13.8533 -1.75093 -1.3249
rclavicle 2.70347e-014 -2.38542e-014
rhumerus 9.43374 13.513 -68.0169
rradius 133.448
rwrist -10.9939
rhand -30.6651 14.6103
rfingers 7.12502
rthumb -3.95976 -15.3327
lclavicle 2.70347e-014 -2.38542e-014
lhumerus 7.29164 -27.2416 72.3127
lradius 138.828
lwrist 1.58858
lhand -22.7111 2.07554
lfingers 7.12502
lthumb 3.72213 32.0228
rfemur -51.4213 -14.1941 7.41492
rtibia 50.9558
rfoot -7.67916 -17.473
rtoes -0.207401
lfemur -6.26493 -15.4782 -17.8952
ltibia 25.0563
lfoot -35.1983 29.3296
ltoes -3.96177
3175
root 2.37769 14.6523 -1.22531 17.5615 20.3892 4.91899
lowerback -1.95135 -1.57068 -1.03185
upperback -8.26786 -2.07978 0.149344
thorax -7.49018 -0.937181 0.824592
lowerneck -17.2011 -2.83118 1.1934
upperneck 32.6048 -4.14076 -1.02437
head 13.9165 -1.74029 -1.29999
rclavicle 1.91454e-014 7.95139e-015
rhumerus 9.41784 13.7478 -68.0359
rradius 133.425
rwrist -11.0972
rhand -30.6752 14.54
rfingers 7.12502
rthumb -3.96947 -15.4028
lclavicle 1.91454e-014 7.95139e-015
lhumerus 7.29848 -27.3956 72.4271
lradius 138.739
lwrist 1.60499
lhand -22.5396 2.06345
lfingers 7.12502
lthumb 3.88773 32.0077
rfemur -51.1392 -14.1167 7.61212
rtibia 50.779
rfoot -7.60234 -17.5945
rtoes -0.304682
lfemur -6.13853 -15.6001 -17.7213
ltibia 25.108
lfoot -35.3345 29.4154
ltoes -3.7709
3176
root 2.3802 14.6565 -1.21981 17.3694 20.4851 4.71119
lowerback -1.97665 -1.64828 -0.915926
upperback -8.27852 -2.17792 0.201866
thorax -7.48722 -0.991724 0.818702
lowerneck -17.1714 -2.81292 1.18518
upperneck 32.7697 -4.13199 -0.974004
head 13.9848 -1.7276 -1.27981
rclavicle 3.65888e-014 -9.54166e-015
rhumerus 9.40135 13.9668 -68.0152
rradius 133.442
rwrist -11.2847
rhand -30.6775 14.4547
rfingers 7.12502
rthumb -3.97171 -15.488
lclavicle 3.65888e-014 -9.54166e-015
lhumerus 7.30223 -27.5169 72.5404
lradius 138.68
lwrist 1.60452
lhand -22.3237 2.09223
lfingers 7.12502
lthumb 4.09618 32.0326
rfemur -50.8644 -14.0498 7.8061
rtibia 50.6201
rfoot -7.52586 -17.7197
rtoes -0.397777
lfemur -5.99931 -15.7122 -17.5539
ltibia 25.1455
lfoot -35.4637 29.4769
ltoes -3.57096
3177
root 2.38134 14.6598 -1.21332 17.1852 20.5726 4.52519
lowerback -1.99877 -1.73038 -0.856878
upperback -8.29369 -2.28294 0.265018
thorax -7.48858 -1.04536 0.856067
lowerneck -17.1474 -2.79141 1.17713
upperneck 32.95 -4.11441 -0.936596
head 14.0612 -1.71256 -1.26374
rclavicle 6.83322e-015 -1.59028e-015
rhumerus 9.40214 14.1676 -67.9546
rradius 133.49
rwrist -11.5289
rhand -30.6929 14.3858
rfingers 7.12502
rthumb -3.98663 -15.5567
lclavicle 6.83322e-015 -1.59028e-015
lhumerus 7.31905 -27.612 72.6477
lradius 138.632
lwrist 1.58026
lhand -22.1074 2.13366
lfingers 7.12502
lthumb 4.30503 32.0699
rfemur -50.6057 -13.9857 7.98379
rtibia 50.4792
rfoot -7.4509 -17.8439
rtoes -0.500852
lfemur -5.85409 -15.7995 -17.3998
ltibia 25.1687
lfoot -35.5644 29.5183
ltoes -3.41515
3178
root 2.38115 14.6621 -1.2061 17.0156 20.6385 4.37035
lowerback -2.01957 -1.81486 -0.864874
upperback -8.31273 -2.39237 0.335629
thorax -7.49188 -1.09633 0.938834
lowerneck -17.1351 -2.76509 1.17584
upperneck 33.1425 -4.0858 -0.918311
head 14.1454 -1.69433 -1.2551
rclavicle -3.27746e-014 -3.18055e-015
rhumerus 9.41399 14.3499 -67.8662
rradius 133.555
rwrist -11.7909
rhand -30.7143 14.316
rfingers 7.12502
rthumb -4.00721 -15.6261
lclavicle -3.27746e-014 -3.18055e-015
lhumerus 7.33645 -27.6815 72.7468
lradius 138.611
lwrist 1.54821
lhand -21.8965 2.19218
lfingers 7.12502
lthumb 4.5087 32.1242
rfemur -50.3721 -13.9179 8.1315
rtibia 50.3608
rfoot -7.38413 -17.9568
rtoes -0.604872
lfemur -5.70351 -15.8602 -17.272
ltibia 25.1763
lfoot -35.6453 29.5417
ltoes -3.28826
3179
root 2.37984 14.6633 -1.19849 16.8615 20.6729 4.24387
lowerback -2.04599 -1.89634 -0.931892
upperback -8.32891 -2.49893 0.410043
thorax -7.48597 -1.14185 1.05795
lowerneck -17.1468 -2.73556 1.17731
upperneck 33.3426 -4.05016 -0.911065
head 14.2385 -1.67403 -1.25085
rclavicle 0 -4.37326e-015
rhumerus 9.44604 14.5054 -67.7526
rradius 133.628
rwrist -12.0338
rhand -30.7486 14.2471
rfingers 7.12502
rthumb -4.04038 -15.6944
lclavicle 0 -4.37326e-015
lhumerus 7.36348 -27.7325 72.826
lradius 138.614
lwrist 1.5172
lhand -21.7237 2.24669
lfingers 7.12502
lthumb 4.67557 32.1751
rfemur -50.1709 -13.8395 8.24896
rtibia 50.2701
rfoot -7.33571 -18.0489
rtoes -0.701388
lfemur -5.54773 -15.8903 -17.1717
ltibia 25.1679
lfoot -35.7074 29.5552
ltoes -3.1961
